<svg width="28" height="28" viewBox="-5 -5 38 38" fill="none" xmlns="http://www.w3.org/2000/svg">
<g clip-path="url(#clip0)">
<path d="M26.6102 2.77792C25.914 2.77792 25.349 3.34294 25.349 4.03907V7.11622C23.4473 3.76927 19.6488 0.255737 13.999 0.255737C6.34911 0.255737 0.126831 6.47802 0.126831 14.1279C0.126831 21.7778 6.34923 28.0001 13.9991 28.0001C14.6953 28.0001 15.2603 27.4351 15.2603 26.7389C15.2603 26.0428 14.6953 25.4778 13.9991 25.4778C7.7415 25.4778 2.64913 20.3854 2.64913 14.1278C2.64913 7.87016 7.7415 2.7778 13.9991 2.7778C19.9465 2.7778 23.2178 7.69105 24.0225 10.3445H19.0436C18.3475 10.3445 17.7825 10.9095 17.7825 11.6056C17.7825 12.3017 18.3475 12.8668 19.0436 12.8668H26.6103C27.3064 12.8668 27.8714 12.3017 27.8714 11.6056V4.03895C27.8713 3.34282 27.3089 2.77792 26.6102 2.77792Z" fill="white"/>
</g>
<defs>
<clipPath id="clip0">
<rect width="28" height="28" fill="white"/>
</clipPath>
</defs>
</svg>
