<svg width="28" height="28" viewBox="0 0 28 28" fill="none" xmlns="http://www.w3.org/2000/svg">
<path d="M5.46552 8H7.38552M7.38552 8H22.7455M7.38552 8V22C7.38552 22.5304 7.5878 23.0391 7.94787 23.4142C8.30794 23.7893 8.7963 24 9.30552 24H18.9055C19.4147 24 19.9031 23.7893 20.2632 23.4142C20.6232 23.0391 20.8255 22.5304 20.8255 22V8H7.38552ZM10.2655 8V6C10.2655 5.46957 10.4678 4.96086 10.8279 4.58579C11.1879 4.21071 11.6763 4 12.1855 4H16.0255C16.5347 4 17.0231 4.21071 17.3832 4.58579C17.7432 4.96086 17.9455 5.46957 17.9455 6V8M12.1855 13V19M16.0255 13V19" stroke="white" stroke-linecap="round" stroke-linejoin="round"/>
</svg>
